# xmcd
#
# Track frame offsets:
#	225
#	11617
#	21382
#	36782
#	55525
#	67172
#	76982
#	88640
#	105980
#	118607
#	129457
#	143155
#
# Disc length: 2031 seconds
#
# Revision: 1
# Processed by: cddbd v1.5.2PL0 Copyright (c) Steve Scherf et al.
# Submitted via: audiograbber 1.83.01
#
DISCID=9807ec0c
DTITLE=Tim Graves and Cherokee - A New View 
DYEAR=1998
DGENRE=
TTITLE0=Kaw Liga
TTITLE1=She Don´t Love Here Any More
TTITLE2=I Don´t Know What I Was Thinking
TTITLE3=The Soldier´s Return
TTITLE4=The Bus Stops Here
TTITLE5=Is Anybody Going To Cincinnati
TTITLE6=Till My Dying Day
TTITLE7=I Never Go Around Mirrors
TTITLE8=It Takes One To Know One
TTITLE9=Right Before My Eyes
TTITLE10=The Old Rugged Cross
TTITLE11=Paint The Town Tonight
EXTD=
EXTT0=
EXTT1=
EXTT2=
EXTT3=
EXTT4=
EXTT5=
EXTT6=
EXTT7=
EXTT8=
EXTT9=
EXTT10=
EXTT11=
PLAYORDER=
